<svg width="32" height="33" viewBox="0 0 32 33" fill="none" xmlns="http://www.w3.org/2000/svg">
<path d="M14.0188 15.595C14.7565 15.0182 15.2959 14.2256 15.5618 13.3276C15.8276 12.4297 15.8067 11.4711 15.502 10.5856C15.1972 9.70013 14.6238 8.93175 13.8616 8.38762C13.0994 7.84348 12.1865 7.55069 11.25 7.55005H4C3.80109 7.55005 3.61032 7.62907 3.46967 7.76972C3.32902 7.91037 3.25 8.10114 3.25 8.30005V24.3C3.25 24.499 3.32902 24.6897 3.46967 24.8304C3.61032 24.971 3.80109 25.05 4 25.05H11.75C12.873 25.0498 13.9632 24.6715 14.8449 23.9761C15.7267 23.2807 16.3487 22.3087 16.6107 21.2167C16.8727 20.1247 16.7595 18.9763 16.2893 17.9565C15.8191 16.9367 15.0193 16.1049 14.0188 15.595ZM4.75 9.05005H11.25C12.0456 9.05005 12.8087 9.36612 13.3713 9.92873C13.9339 10.4913 14.25 11.2544 14.25 12.05C14.25 12.8457 13.9339 13.6088 13.3713 14.1714C12.8087 14.734 12.0456 15.05 11.25 15.05H4.75V9.05005ZM11.75 23.55H4.75V16.55H11.75C12.6783 16.55 13.5685 16.9188 14.2249 17.5752C14.8813 18.2316 15.25 19.1218 15.25 20.05C15.25 20.9783 14.8813 21.8685 14.2249 22.5249C13.5685 23.1813 12.6783 23.55 11.75 23.55ZM20.25 10.3C20.25 10.1011 20.329 9.91037 20.4697 9.76972C20.6103 9.62907 20.8011 9.55005 21 9.55005H29C29.1989 9.55005 29.3897 9.62907 29.5303 9.76972C29.671 9.91037 29.75 10.1011 29.75 10.3C29.75 10.499 29.671 10.6897 29.5303 10.8304C29.3897 10.971 29.1989 11.05 29 11.05H21C20.8011 11.05 20.6103 10.971 20.4697 10.8304C20.329 10.6897 20.25 10.499 20.25 10.3ZM25 13.55C24.02 13.5502 23.0563 13.8009 22.2003 14.2782C21.3444 14.7555 20.6247 15.4437 20.1095 16.2774C19.5944 17.111 19.3008 18.0626 19.2568 19.0416C19.2127 20.0206 19.4196 20.9947 19.8578 21.8712C20.2961 22.7478 20.9511 23.4979 21.7607 24.0501C22.5703 24.6024 23.5076 24.9386 24.4836 25.0267C25.4597 25.1149 26.4421 24.9521 27.3375 24.5539C28.233 24.1557 29.0118 23.5352 29.6 22.7513C29.7195 22.5922 29.7709 22.3921 29.7429 22.195C29.7149 21.998 29.6098 21.8202 29.4506 21.7007C29.2915 21.5812 29.0914 21.5298 28.8944 21.5578C28.6973 21.5858 28.5195 21.6909 28.4 21.85C27.9034 22.5124 27.2242 23.0153 26.4458 23.2969C25.6673 23.5786 24.8236 23.6268 24.0182 23.4357C23.2127 23.2445 22.4806 22.8222 21.9118 22.2208C21.343 21.6194 20.9622 20.8649 20.8162 20.05H30C30.1989 20.05 30.3897 19.971 30.5303 19.8304C30.671 19.6897 30.75 19.499 30.75 19.3C30.748 17.7757 30.1416 16.3143 29.0637 15.2364C27.9858 14.1585 26.5244 13.552 25 13.55ZM20.8162 18.55C20.9917 17.5681 21.507 16.6791 22.2718 16.0388C23.0367 15.3984 24.0025 15.0475 25 15.0475C25.9975 15.0475 26.9633 15.3984 27.7282 16.0388C28.493 16.6791 29.0083 17.5681 29.1838 18.55H20.8162Z" fill="#6DDBF2"/>
</svg>
