<svg width="32" height="33" viewBox="0 0 32 33" fill="none" xmlns="http://www.w3.org/2000/svg">
<path d="M13.3988 20.6751C14.8542 20.0129 16.039 18.8725 16.7563 17.4435C17.4735 16.0145 17.6799 14.383 17.3412 12.8204C17.0024 11.2578 16.1389 9.85832 14.8943 8.85461C13.6497 7.85089 12.099 7.30352 10.5001 7.30352C8.90115 7.30352 7.35043 7.85089 6.10582 8.85461C4.8612 9.85832 3.99771 11.2578 3.65896 12.8204C3.32022 14.383 3.52663 16.0145 4.24386 17.4435C4.9611 18.8725 6.14594 20.0129 7.60131 20.6751C4.82747 21.394 2.42285 23.1245 0.86006 25.5263C0.82307 25.5813 0.797377 25.6431 0.784474 25.7081C0.77157 25.7731 0.771715 25.84 0.784899 25.9049C0.798082 25.9698 0.824042 26.0315 0.861269 26.0863C0.898497 26.1412 0.946249 26.188 1.00175 26.2242C1.05725 26.2604 1.11939 26.2852 1.18457 26.2972C1.24974 26.3092 1.31664 26.3081 1.38138 26.294C1.44613 26.2799 1.50742 26.253 1.5617 26.215C1.61598 26.177 1.66216 26.1286 1.69756 26.0726C2.65098 24.6064 3.95553 23.4016 5.49275 22.5676C7.02997 21.7336 8.75116 21.2967 10.5001 21.2967C12.249 21.2967 13.9702 21.7336 15.5074 22.5676C17.0446 23.4016 18.3491 24.6064 19.3026 26.0726C19.338 26.1286 19.3841 26.177 19.4384 26.215C19.4927 26.253 19.554 26.2799 19.6187 26.294C19.6835 26.3081 19.7504 26.3092 19.8156 26.2972C19.8807 26.2852 19.9429 26.2604 19.9984 26.2242C20.0539 26.188 20.1016 26.1412 20.1389 26.0863C20.1761 26.0315 20.202 25.9698 20.2152 25.9049C20.2284 25.84 20.2286 25.7731 20.2156 25.7081C20.2027 25.6431 20.177 25.5813 20.1401 25.5263C18.5773 23.1245 16.1726 21.394 13.3988 20.6751ZM4.50006 14.3001C4.50006 13.1134 4.85195 11.9533 5.51124 10.9666C6.17053 9.98 7.1076 9.21096 8.20396 8.75684C9.30032 8.30271 10.5067 8.18389 11.6706 8.4154C12.8345 8.64691 13.9036 9.21836 14.7427 10.0575C15.5818 10.8965 16.1533 11.9656 16.3848 13.1295C16.6163 14.2934 16.4975 15.4998 16.0433 16.5962C15.5892 17.6925 14.8202 18.6296 13.8335 19.2889C12.8468 19.9482 11.6867 20.3001 10.5001 20.3001C8.90927 20.2984 7.38411 19.6657 6.25925 18.5409C5.13439 17.416 4.50171 15.8909 4.50006 14.3001ZM31.0001 26.2188C30.889 26.291 30.7538 26.3161 30.6242 26.2887C30.4946 26.2613 30.3812 26.1835 30.3088 26.0726C29.356 24.6046 28.0506 23.3988 26.5119 22.5651C24.9732 21.7314 23.2501 21.2965 21.5001 21.3001C21.3675 21.3001 21.2403 21.2474 21.1465 21.1536C21.0527 21.0598 21.0001 20.9327 21.0001 20.8001C21.0001 20.6675 21.0527 20.5403 21.1465 20.4465C21.2403 20.3527 21.3675 20.3001 21.5001 20.3001C22.3838 20.2996 23.2566 20.1039 24.0559 19.7269C24.8553 19.35 25.5615 18.8011 26.1241 18.1195C26.6867 17.4379 27.0918 16.6405 27.3104 15.7842C27.529 14.9279 27.5557 14.0338 27.3886 13.166C27.2216 12.2981 26.8649 11.4779 26.344 10.764C25.8232 10.05 25.151 9.45991 24.3756 9.03587C23.6002 8.61183 22.7407 8.36432 21.8586 8.31103C20.9764 8.25774 20.0934 8.39999 19.2726 8.72761C19.2116 8.75224 19.1463 8.76461 19.0806 8.76402C19.0148 8.76343 18.9498 8.74989 18.8893 8.72418C18.8287 8.69847 18.7739 8.66109 18.7278 8.61418C18.6817 8.56726 18.6453 8.51172 18.6207 8.45074C18.5961 8.38976 18.5837 8.32452 18.5843 8.25876C18.5849 8.19299 18.5984 8.12799 18.6241 8.06746C18.6498 8.00693 18.6872 7.95205 18.7341 7.90597C18.781 7.85988 18.8366 7.82349 18.8976 7.79886C20.6049 7.06952 22.532 7.04828 24.255 7.73982C25.978 8.43136 27.3557 9.77903 28.0851 11.4863C28.8144 13.1936 28.8356 15.1208 28.1441 16.8438C27.4526 18.5668 26.1049 19.9445 24.3976 20.6738C27.1724 21.3943 29.5772 23.1271 31.1388 25.5313C31.2105 25.6412 31.2362 25.7749 31.2102 25.9035C31.1842 26.0321 31.1088 26.1453 31.0001 26.2188Z" fill="#6DDBF2"/>
</svg>
